<?xml version="1.0" encoding="UTF-8" standalone="no"?>
<svg
   xmlns:dc="http://purl.org/dc/elements/1.1/"
   xmlns:cc="http://creativecommons.org/ns#"
   xmlns:rdf="http://www.w3.org/1999/02/22-rdf-syntax-ns#"
   xmlns:svg="http://www.w3.org/2000/svg"
   xmlns="http://www.w3.org/2000/svg"
   xmlns:sodipodi="http://sodipodi.sourceforge.net/DTD/sodipodi-0.dtd"
   xmlns:inkscape="http://www.inkscape.org/namespaces/inkscape"
   inkscape:version="1.0 (4035a4fb49, 2020-05-01)"
   sodipodi:docname="logo.svg"
   id="svg8"
   version="1.1"
   viewBox="0 0 436.27601 98.34008"
   height="98.34008mm"
   width="436.276mm">
  <sodipodi:namedview
     inkscape:current-layer="svg8"
     inkscape:window-maximized="1"
     inkscape:window-y="-8"
     inkscape:window-x="-8"
     inkscape:cy="185.83952"
     inkscape:cx="824.45858"
     inkscape:zoom="0.61935665"
     showgrid="false"
     id="namedview25"
     inkscape:window-height="1017"
     inkscape:window-width="1920"
     inkscape:pageshadow="2"
     inkscape:pageopacity="0"
     guidetolerance="10"
     gridtolerance="10"
     objecttolerance="10"
     borderopacity="1"
     bordercolor="#666666"
     pagecolor="#ffffff" />
  <defs
     id="defs2">
    <rect
       id="rect875"
       height="11.585558"
       width="440.83047"
       y="165.67348"
       x="41.708008" />
    <rect
       x="192.21318"
       y="33.098949"
       width="35.940273"
       height="18.094757"
       id="rect849" />
    <rect
       x="22.730604"
       y="30.307472"
       width="74.572334"
       height="68.590599"
       id="rect841" />
  </defs>
  <metadata
     id="metadata5">
    <rdf:RDF>
      <cc:Work
         rdf:about="">
        <dc:format>image/svg+xml</dc:format>
        <dc:type
           rdf:resource="http://purl.org/dc/dcmitype/StillImage" />
        <dc:title />
      </cc:Work>
    </rdf:RDF>
  </metadata>
  <g
     transform="translate(-65.071116,-90.397731)"
     id="layer1">
    <g
       style="font-style:normal;font-weight:normal;font-size:50.8px;line-height:1.25;font-family:sans-serif;letter-spacing:0px;white-space:pre;shape-inside:url(#rect841);fill:#ff6200;fill-opacity:1;stroke:none;stroke-width:1;stroke-miterlimit:4;stroke-dasharray:none"
       id="text839"
       transform="matrix(2,0,0,2,10.91494,16.282809)"
       aria-label="IN">
      <path
         id="path850"
         style="font-style:normal;font-variant:normal;font-weight:500;font-stretch:normal;font-family:'Brandon Grotesque';-inkscape-font-specification:'Brandon Grotesque Medium';stroke-width:1;stroke-miterlimit:4;stroke-dasharray:none"
         d="m 27.099269,75.68782 c 0,0.508 0.4572,0.9652 0.9652,0.9652 h 6.096 c 0.508,0 0.9652,-0.4572 0.9652,-0.9652 V 42.058221 c 0,-0.508 -0.4572,-0.9652 -0.9652,-0.9652 h -6.096 c -0.508,0 -0.9652,0.4572 -0.9652,0.9652 z" />
      <path
         id="path852"
         style="font-style:normal;font-variant:normal;font-weight:500;font-stretch:normal;font-family:'Brandon Grotesque';-inkscape-font-specification:'Brandon Grotesque Medium';stroke-width:1;stroke-miterlimit:4;stroke-dasharray:none"
         d="m 43.867238,75.68782 c 0,0.508 0.4572,0.9652 0.9652,0.9652 h 6.0452 c 0.5588,0 0.9652,-0.4572 0.9652,-0.9652 v -18.9484 c 0,0 0.0508,0 0.0508,0 l 20.065999,20.1676 c 0.1016,0.1016 0.508,0.254 0.6604,0.254 h 0.8128 c 0.508,0 0.9652,-0.4064 0.9652,-0.9144 V 42.058221 c 0,-0.508 -0.4572,-0.9652 -0.9652,-0.9652 h -6.096 c -0.5588,0 -0.9652,0.4572 -0.9652,0.9652 V 60.09222 c 0,0 -0.0508,0 -0.0508,0 L 46.051638,40.585021 h -1.27 c -0.508,0 -0.9652,0.4064 -0.9652,0.9144 z" />
    </g>
    <g
       style="font-style:normal;font-weight:normal;font-size:12.7px;line-height:1.25;font-family:sans-serif;white-space:pre;shape-inside:url(#rect849);fill:#000000;fill-opacity:1;stroke:none"
       id="text847"
       transform="matrix(8,0,0,8,-1283.9651,-186.56659)"
       aria-label="VOLT">
      <path
         id="path855"
         style="font-style:normal;font-variant:normal;font-weight:normal;font-stretch:normal;font-family:'Brandon Grotesque';-inkscape-font-specification:'Brandon Grotesque';fill:#ff6200;fill-opacity:1"
         d="m 196.12449,44.673504 c 0.0381,0.0762 0.1143,0.1397 0.2159,0.1397 h 0.127 c 0.1016,0 0.1778,-0.0635 0.2159,-0.1397 l 3.9878,-8.5471 c 0.0762,-0.1651 -0.0254,-0.3302 -0.2159,-0.3302 h -1.6891 c -0.1016,0 -0.1905,0.0762 -0.2159,0.1397 l -2.0955,4.6355 h -0.0762 l -2.0955,-4.6355 c -0.0254,-0.0635 -0.1143,-0.1397 -0.2159,-0.1397 h -1.6891 c -0.1905,0 -0.2921,0.1651 -0.2159,0.3302 z" />
      <path
         id="path857"
         style="font-style:normal;font-variant:normal;font-weight:normal;font-stretch:normal;font-family:'Brandon Grotesque';-inkscape-font-specification:'Brandon Grotesque';fill:#ff6200;fill-opacity:1"
         d="m 200.99177,40.253904 c 0,2.54 2.0193,4.5593 4.55929,4.5593 2.54,0 4.572,-2.0193 4.572,-4.5593 0,-2.54 -2.032,-4.5847 -4.572,-4.5847 -2.53999,0 -4.55929,2.0447 -4.55929,4.5847 z m 2.032,0 c 0,-1.397 1.14299,-2.5527 2.52729,-2.5527 1.397,0 2.54,1.1557 2.54,2.5527 0,1.3843 -1.143,2.5273 -2.54,2.5273 -1.3843,0 -2.52729,-1.143 -2.52729,-2.5273 z" />
      <path
         id="path859"
         style="font-style:normal;font-variant:normal;font-weight:normal;font-stretch:normal;font-family:'Brandon Grotesque';-inkscape-font-specification:'Brandon Grotesque';fill:#ff6200;fill-opacity:1"
         d="m 211.66056,44.444904 c 0,0.127 0.1016,0.2413 0.2413,0.2413 h 4.7752 c 0.1397,0 0.2413,-0.1143 0.2413,-0.2413 v -1.3843 c 0,-0.127 -0.1016,-0.2413 -0.2413,-0.2413 h -3.0226 v -6.7818 c 0,-0.127 -0.1143,-0.2413 -0.2413,-0.2413 h -1.5113 c -0.1397,0 -0.2413,0.1143 -0.2413,0.2413 z" />
      <path
         id="path861"
         style="font-style:normal;font-variant:normal;font-weight:normal;font-stretch:normal;font-family:'Brandon Grotesque';-inkscape-font-specification:'Brandon Grotesque';fill:#ff6200;fill-opacity:1"
         d="m 218.8311,44.444904 c 0,0.127 0.1143,0.2413 0.2413,0.2413 h 1.524 c 0.127,0 0.2413,-0.1143 0.2413,-0.2413 v -6.7818 h 1.8161 c 0.1397,0 0.2413,-0.1143 0.2413,-0.2413 v -1.3843 c 0,-0.127 -0.1016,-0.2413 -0.2413,-0.2413 h -5.6388 c -0.1397,0 -0.2413,0.1143 -0.2413,0.2413 v 1.3843 c 0,0.127 0.1016,0.2413 0.2413,0.2413 h 1.8161 z" />
    </g>
    <path
       id="rect838-9"
       style="fill:#0b84f6;fill-opacity:1;stroke:none;stroke-width:3.49097;stroke-miterlimit:4;stroke-dasharray:none;stroke-opacity:1;stop-color:#000000"
       d="m 164.12022,175.75184 78.10946,-42.67706 h -23.63093 l 35.43244,-42.677049 -78.10995,42.677049 h 23.63138 z" />
    <g
       style="font-style:normal;font-weight:normal;font-size:9.87778px;line-height:1.25;font-family:sans-serif;letter-spacing:3.36021px;white-space:pre;shape-inside:url(#rect875);fill:#000000;fill-opacity:1;stroke:none"
       id="text873"
       transform="translate(23.364085,13.90267)"
       aria-label="THE ULTIMATE HOMEMADE HOMEBANKING APPLICATION ">
      <path
         id="path864"
         style="shape-inside:url(#rect875)"
         d="M 47.793827,168.35285 H 45.22792 v 6.33278 h -0.954981 v -6.33278 h -2.565908 v -0.84887 h 6.086796 z" />
      <path
         id="path866"
         style="shape-inside:url(#rect875)"
         d="m 57.62186,174.68563 h -0.95498 v -3.51607 h -3.583589 v 3.51607 H 52.12831 v -7.18165 h 0.954981 v 2.81671 h 3.583589 v -2.81671 h 0.95498 z" />
      <path
         id="path868"
         style="shape-inside:url(#rect875)"
         d="m 67.647643,174.68563 h -4.731495 v -7.18165 h 4.731495 v 0.84887 h -3.776514 v 1.96784 h 3.776514 v 0.84887 h -3.776514 v 2.66719 h 3.776514 z" />
      <path
         id="path870"
         style="shape-inside:url(#rect875)"
         d="m 84.766743,171.80139 q 0,0.78135 -0.173633,1.36495 -0.16881,0.57877 -0.559484,0.96463 -0.371381,0.36655 -0.868164,0.53536 -0.496783,0.16881 -1.157552,0.16881 -0.675239,0 -1.176845,-0.17845 -0.501606,-0.17846 -0.844049,-0.52572 -0.390674,-0.3955 -0.564306,-0.95498 -0.16881,-0.55949 -0.16881,-1.3746 v -4.29741 h 0.954981 v 4.34564 q 0,0.5836 0.07717,0.92122 0.08199,0.33762 0.270095,0.61254 0.212218,0.3135 0.573953,0.47267 0.366559,0.15916 0.877811,0.15916 0.516075,0 0.87781,-0.15434 0.361735,-0.15916 0.578777,-0.47749 0.188102,-0.27492 0.265272,-0.62701 0.08199,-0.35691 0.08199,-0.88263 v -4.36976 h 0.954981 z" />
      <path
         id="path872"
         style="shape-inside:url(#rect875)"
         d="m 94.498311,174.68563 h -4.543392 v -7.18165 h 0.95498 v 6.33277 h 3.588412 z" />
      <path
         id="path874"
         style="shape-inside:url(#rect875)"
         d="m 103.12539,168.35285 h -2.56591 v 6.33278 h -0.954983 v -6.33278 h -2.565908 v -0.84887 h 6.086801 z" />
      <path
         id="path876"
         style="shape-inside:url(#rect875)"
         d="m 109.99201,174.68563 h -2.836 v -0.73312 h 0.94051 v -5.71541 h -0.94051 v -0.73312 h 2.836 v 0.73312 h -0.94051 v 5.71541 h 0.94051 z" />
      <path
         id="path878"
         style="shape-inside:url(#rect875)"
         d="m 121.38274,174.68563 h -0.95498 v -6.18809 l -1.99678,4.2106 h -0.56913 l -1.98231,-4.2106 v 6.18809 h -0.89228 v -7.18165 h 1.30225 l 1.91478,3.99838 1.85209,-3.99838 h 1.32636 z" />
      <path
         id="path880"
         style="shape-inside:url(#rect875)"
         d="m 132.34421,174.68563 h -1.01768 l -0.70418,-2.0016 h -3.1061 l -0.70417,2.0016 h -0.96945 l 2.61413,-7.18165 h 1.27331 z m -2.01607,-2.82154 -1.25884,-3.52571 -1.26366,3.52571 z" />
      <path
         id="path882"
         style="shape-inside:url(#rect875)"
         d="m 141.33785,168.35285 h -2.56591 v 6.33278 h -0.95498 v -6.33278 h -2.56591 v -0.84887 h 6.0868 z" />
      <path
         id="path884"
         style="shape-inside:url(#rect875)"
         d="m 150.40382,174.68563 h -4.73149 v -7.18165 h 4.73149 v 0.84887 h -3.77651 v 1.96784 h 3.77651 v 0.84887 h -3.77651 v 2.66719 h 3.77651 z" />
      <path
         id="path886"
         style="shape-inside:url(#rect875)"
         d="m 167.60974,174.68563 h -0.95499 v -3.51607 h -3.58358 v 3.51607 h -0.95499 v -7.18165 h 0.95499 v 2.81671 h 3.58358 v -2.81671 h 0.95499 z" />
      <path
         id="path888"
         style="shape-inside:url(#rect875)"
         d="m 178.2577,168.32873 q 0.4389,0.48232 0.67041,1.18167 0.23634,0.69936 0.23634,1.58681 0,0.88746 -0.24116,1.59164 -0.23633,0.69935 -0.66559,1.1672 -0.44373,0.48713 -1.05144,0.73311 -0.6029,0.24598 -1.37942,0.24598 -0.75723,0 -1.37942,-0.2508 -0.61736,-0.2508 -1.05144,-0.72829 -0.43408,-0.47749 -0.67042,-1.17202 -0.23151,-0.69454 -0.23151,-1.58682 0,-0.87781 0.23151,-1.57234 0.23151,-0.69935 0.67524,-1.19614 0.42444,-0.47266 1.05145,-0.72347 0.63183,-0.2508 1.37459,-0.2508 0.7717,0 1.38424,0.25563 0.61736,0.2508 1.04662,0.71864 z m -0.0868,2.76848 q 0,-1.39871 -0.62701,-2.15594 -0.627,-0.76205 -1.71221,-0.76205 -1.09485,0 -1.72186,0.76205 -0.62218,0.75723 -0.62218,2.15594 0,1.41318 0.63665,2.16559 0.63666,0.74759 1.70739,0.74759 1.07074,0 1.70257,-0.74759 0.63665,-0.75241 0.63665,-2.16559 z" />
      <path
         id="path890"
         style="shape-inside:url(#rect875)"
         d="m 190.43461,174.68563 h -0.95498 v -6.18809 l -1.99678,4.2106 h -0.56913 l -1.9823,-4.2106 v 6.18809 h -0.89228 v -7.18165 h 1.30224 l 1.91479,3.99838 1.85208,-3.99838 h 1.32636 z" />
      <path
         id="path892"
         style="shape-inside:url(#rect875)"
         d="m 200.46521,174.68563 h -4.73149 v -7.18165 h 4.73149 v 0.84887 h -3.77651 v 1.96784 h 3.77651 v 0.84887 h -3.77651 v 2.66719 h 3.77651 z" />
      <path
         id="path894"
         style="shape-inside:url(#rect875)"
         d="m 211.74018,174.68563 h -0.95498 v -6.18809 l -1.99677,4.2106 h -0.56913 l -1.98231,-4.2106 v 6.18809 h -0.89228 v -7.18165 h 1.30224 l 1.91479,3.99838 1.85208,-3.99838 h 1.32636 z" />
      <path
         id="path896"
         style="shape-inside:url(#rect875)"
         d="m 222.70166,174.68563 h -1.01768 l -0.70418,-2.0016 h -3.10609 l -0.70418,2.0016 h -0.96945 l 2.61414,-7.18165 h 1.2733 z m -2.01607,-2.82154 -1.25883,-3.52571 -1.26367,3.52571 z" />
      <path
         id="path898"
         style="shape-inside:url(#rect875)"
         d="m 233.2194,171.10204 q 0,0.97909 -0.42926,1.77491 -0.42443,0.79582 -1.13343,1.23472 -0.49196,0.30386 -1.09968,0.43891 -0.60289,0.13505 -1.59163,0.13505 h -1.8135 v -7.18165 h 1.7942 q 1.05145,0 1.66881,0.15434 0.62218,0.14952 1.05144,0.41479 0.73312,0.4582 1.14309,1.22025 0.40996,0.76206 0.40996,1.80868 z m -0.99839,-0.0145 q 0,-0.84405 -0.29421,-1.42283 -0.29421,-0.57877 -0.87781,-0.91157 -0.42443,-0.24116 -0.90193,-0.3328 -0.47749,-0.0965 -1.14308,-0.0965 h -0.8971 v 5.54178 h 0.8971 q 0.68971,0 1.20096,-0.10128 0.51608,-0.10129 0.94534,-0.37621 0.53536,-0.34244 0.80064,-0.90192 0.27009,-0.55949 0.27009,-1.39871 z" />
      <path
         id="path900"
         style="shape-inside:url(#rect875)"
         d="m 242.86415,174.68563 h -4.73149 v -7.18165 h 4.73149 v 0.84887 h -3.77651 v 1.96784 h 3.77651 v 0.84887 h -3.77651 v 2.66719 h 3.77651 z" />
      <path
         id="path902"
         style="shape-inside:url(#rect875)"
         d="m 260.07007,174.68563 h -0.95498 v -3.51607 h -3.58359 v 3.51607 h -0.95498 v -7.18165 h 0.95498 v 2.81671 h 3.58359 v -2.81671 h 0.95498 z" />
      <path
         id="path904"
         style="shape-inside:url(#rect875)"
         d="m 270.71804,168.32873 q 0.43891,0.48232 0.67042,1.18167 0.23633,0.69936 0.23633,1.58681 0,0.88746 -0.24116,1.59164 -0.23633,0.69935 -0.66559,1.1672 -0.44373,0.48713 -1.05144,0.73311 -0.60289,0.24598 -1.37942,0.24598 -0.75723,0 -1.37942,-0.2508 -0.61736,-0.2508 -1.05144,-0.72829 -0.43408,-0.47749 -0.67041,-1.17202 -0.23152,-0.69454 -0.23152,-1.58682 0,-0.87781 0.23152,-1.57234 0.23151,-0.69935 0.67523,-1.19614 0.42444,-0.47266 1.05145,-0.72347 0.63183,-0.2508 1.37459,-0.2508 0.7717,0 1.38424,0.25563 0.61736,0.2508 1.04662,0.71864 z m -0.0868,2.76848 q 0,-1.39871 -0.627,-2.15594 -0.62701,-0.76205 -1.71222,-0.76205 -1.09485,0 -1.72185,0.76205 -0.62219,0.75723 -0.62219,2.15594 0,1.41318 0.63665,2.16559 0.63666,0.74759 1.70739,0.74759 1.07074,0 1.70257,-0.74759 0.63665,-0.75241 0.63665,-2.16559 z" />
      <path
         id="path906"
         style="shape-inside:url(#rect875)"
         d="m 282.89494,174.68563 h -0.95498 v -6.18809 l -1.99678,4.2106 h -0.56913 l -1.98231,-4.2106 v 6.18809 h -0.89228 v -7.18165 h 1.30225 l 1.91478,3.99838 1.85209,-3.99838 h 1.32636 z" />
      <path
         id="path908"
         style="shape-inside:url(#rect875)"
         d="m 292.92554,174.68563 h -4.7315 v -7.18165 h 4.7315 v 0.84887 h -3.77652 v 1.96784 h 3.77652 v 0.84887 h -3.77652 v 2.66719 h 3.77652 z" />
      <path
         id="path910"
         style="shape-inside:url(#rect875)"
         d="m 303.22142,172.47663 q 0,0.53537 -0.20258,0.94533 -0.20257,0.40997 -0.54501,0.67524 -0.40514,0.31833 -0.89228,0.45338 -0.48231,0.13505 -1.2299,0.13505 h -2.54661 v -7.18165 h 2.127 q 0.78617,0 1.17684,0.0579 0.39068,0.0579 0.74759,0.24115 0.3955,0.2074 0.57395,0.53537 0.17846,0.32315 0.17846,0.77653 0,0.51125 -0.26045,0.87298 -0.26045,0.35691 -0.69453,0.57396 v 0.0386 q 0.72829,0.14952 1.1479,0.64148 0.41962,0.48713 0.41962,1.23472 z m -1.60611,-3.23632 q 0,-0.26045 -0.0868,-0.43891 -0.0868,-0.17845 -0.27975,-0.28939 -0.22668,-0.13022 -0.54983,-0.15916 -0.32315,-0.0338 -0.80064,-0.0338 h -1.13826 v 2.07395 h 1.23472 q 0.44855,0 0.71382,-0.0434 0.26527,-0.0482 0.49196,-0.19293 0.22669,-0.14469 0.31833,-0.37138 0.0965,-0.23151 0.0965,-0.54501 z m 0.61254,3.27491 q 0,-0.43409 -0.13022,-0.68971 -0.13023,-0.25563 -0.47267,-0.43408 -0.23151,-0.12058 -0.56431,-0.15435 -0.32797,-0.0386 -0.80064,-0.0386 h -1.49999 v 2.67202 h 1.26366 q 0.627,0 1.02732,-0.0627 0.40033,-0.0675 0.65595,-0.24116 0.2701,-0.1881 0.3955,-0.42926 0.1254,-0.24116 0.1254,-0.62218 z" />
      <path
         id="path912"
         style="shape-inside:url(#rect875)"
         d="m 313.59928,174.68563 h -1.01768 l -0.70418,-2.0016 h -3.1061 l -0.70418,2.0016 h -0.96945 l 2.61414,-7.18165 h 1.27331 z m -2.01607,-2.82154 -1.25884,-3.52571 -1.26366,3.52571 z" />
      <path
         id="path914"
         style="shape-inside:url(#rect875)"
         d="m 323.52861,174.68563 h -1.18167 l -3.40513,-6.42442 v 6.42442 h -0.89228 v -7.18165 h 1.4807 l 3.1061,5.86493 v -5.86493 h 0.89228 z" />
      <path
         id="path916"
         style="shape-inside:url(#rect875)"
         d="m 334.57206,174.68563 h -1.23955 l -2.84083,-3.19774 -0.71382,0.76205 v 2.43569 h -0.95498 v -7.18165 h 0.95498 v 3.74757 l 3.48713,-3.74757 h 1.15755 l -3.20739,3.37619 z" />
      <path
         id="path918"
         style="shape-inside:url(#rect875)"
         d="m 341.53999,174.68563 h -2.83601 v -0.73312 h 0.94051 v -5.71541 h -0.94051 v -0.73312 h 2.83601 v 0.73312 h -0.94052 v 5.71541 h 0.94052 z" />
      <path
         id="path920"
         style="shape-inside:url(#rect875)"
         d="m 352.01433,174.68563 h -1.18167 l -3.40514,-6.42442 v 6.42442 h -0.89228 v -7.18165 h 1.48071 l 3.1061,5.86493 v -5.86493 h 0.89228 z" />
      <path
         id="path922"
         style="shape-inside:url(#rect875)"
         d="m 363.27482,174.15508 q -0.58843,0.2701 -1.28778,0.47267 -0.69453,0.19775 -1.34566,0.19775 -0.83922,0 -1.53858,-0.23151 -0.69935,-0.23151 -1.19131,-0.69453 -0.49678,-0.46785 -0.76688,-1.1672 -0.27009,-0.70418 -0.27009,-1.64469 0,-1.72186 1.00321,-2.71543 1.00803,-0.99839 2.76365,-0.99839 0.61254,0 1.2492,0.14952 0.64147,0.1447 1.37941,0.49678 v 1.13344 h -0.0868 q -0.14952,-0.11575 -0.43409,-0.30386 -0.28456,-0.1881 -0.55948,-0.3135 -0.3328,-0.14952 -0.75723,-0.24598 -0.41962,-0.10129 -0.95498,-0.10129 -1.20579,0 -1.90996,0.77653 -0.69936,0.7717 -0.69936,2.09324 0,1.39388 0.73312,2.17041 0.73311,0.7717 1.99678,0.7717 0.46302,0 0.92121,-0.0916 0.46302,-0.0916 0.81029,-0.23633 v -1.76045 h -1.92443 v -0.83922 h 2.86977 z" />
      <path
         id="path924"
         style="shape-inside:url(#rect875)"
         d="m 380.79908,174.68563 h -1.01769 l -0.70417,-2.0016 h -3.1061 l -0.70418,2.0016 h -0.96945 l 2.61414,-7.18165 h 1.27331 z m -2.01607,-2.82154 -1.25884,-3.52571 -1.26366,3.52571 z" />
      <path
         id="path926"
         style="shape-inside:url(#rect875)"
         d="m 389.94703,169.67439 q 0,0.47749 -0.16881,0.88746 -0.16399,0.40514 -0.46302,0.70417 -0.37138,0.37139 -0.87781,0.55949 -0.50643,0.18328 -1.27813,0.18328 h -0.95498 v 2.67684 h -0.95499 v -7.18165 h 1.94855 q 0.6463,0 1.09485,0.11093 0.44855,0.10611 0.79582,0.33762 0.40997,0.27492 0.63183,0.68489 0.22669,0.40996 0.22669,1.03697 z m -0.99357,0.0241 q 0,-0.37138 -0.13022,-0.6463 -0.13023,-0.27491 -0.3955,-0.44855 -0.23151,-0.14951 -0.53054,-0.21221 -0.29422,-0.0675 -0.74759,-0.0675 h -0.94533 v 2.86977 h 0.80546 q 0.57878,0 0.94051,-0.10129 0.36174,-0.10611 0.58842,-0.3328 0.22669,-0.23151 0.31833,-0.48713 0.0965,-0.25563 0.0965,-0.57396 z" />
      <path
         id="path928"
         style="shape-inside:url(#rect875)"
         d="m 399.26865,169.67439 q 0,0.47749 -0.16881,0.88746 -0.16398,0.40514 -0.46302,0.70417 -0.37138,0.37139 -0.87781,0.55949 -0.50643,0.18328 -1.27813,0.18328 h -0.95498 v 2.67684 h -0.95498 v -7.18165 h 1.94855 q 0.6463,0 1.09485,0.11093 0.44855,0.10611 0.79581,0.33762 0.40997,0.27492 0.63184,0.68489 0.22668,0.40996 0.22668,1.03697 z m -0.99356,0.0241 q 0,-0.37138 -0.13023,-0.6463 -0.13022,-0.27491 -0.39549,-0.44855 -0.23151,-0.14951 -0.53055,-0.21221 -0.29421,-0.0675 -0.74759,-0.0675 h -0.94533 v 2.86977 h 0.80546 q 0.57878,0 0.94052,-0.10129 0.36173,-0.10611 0.58842,-0.3328 0.22668,-0.23151 0.31832,-0.48713 0.0965,-0.25563 0.0965,-0.57396 z" />
      <path
         id="path930"
         style="shape-inside:url(#rect875)"
         d="m 408.43591,174.68563 h -4.5434 v -7.18165 h 0.95498 v 6.33277 h 3.58842 z" />
      <path
         id="path932"
         style="shape-inside:url(#rect875)"
         d="m 415.28324,174.68563 h -2.836 v -0.73312 h 0.94051 v -5.71541 h -0.94051 v -0.73312 h 2.836 v 0.73312 h -0.94051 v 5.71541 h 0.94051 z" />
      <path
         id="path934"
         style="shape-inside:url(#rect875)"
         d="m 425.82511,174.16473 q -0.26528,0.11575 -0.48232,0.21704 -0.21222,0.10128 -0.55948,0.21222 -0.29421,0.0916 -0.64148,0.15434 -0.34244,0.0675 -0.75723,0.0675 -0.78135,0 -1.42283,-0.21704 -0.63665,-0.22186 -1.10932,-0.68971 -0.46302,-0.4582 -0.72347,-1.16237 -0.26045,-0.709 -0.26045,-1.64469 0,-0.88746 0.25081,-1.58681 0.2508,-0.69936 0.72347,-1.18167 0.45819,-0.46785 1.10449,-0.71383 0.65113,-0.24598 1.44212,-0.24598 0.57878,0 1.15273,0.13987 0.57878,0.13988 1.28296,0.49196 v 1.13344 h -0.0723 q -0.59325,-0.49678 -1.17685,-0.72347 -0.5836,-0.22669 -1.24919,-0.22669 -0.54501,0 -0.98392,0.17846 -0.43408,0.17363 -0.77652,0.54501 -0.3328,0.36174 -0.5209,0.9164 -0.18328,0.54984 -0.18328,1.27331 0,0.75723 0.20257,1.30224 0.2074,0.54502 0.53055,0.88746 0.33762,0.35691 0.78617,0.53055 0.45337,0.1688 0.95498,0.1688 0.68971,0 1.2926,-0.23633 0.60289,-0.23633 1.12861,-0.709 h 0.0675 z" />
      <path
         id="path936"
         style="shape-inside:url(#rect875)"
         d="m 436.2078,174.68563 h -1.01768 l -0.70418,-2.0016 h -3.1061 l -0.70418,2.0016 h -0.96945 l 2.61414,-7.18165 h 1.27331 z m -2.01607,-2.82154 -1.25884,-3.52571 -1.26366,3.52571 z" />
      <path
         id="path938"
         style="shape-inside:url(#rect875)"
         d="m 445.20142,168.35285 h -2.56591 v 6.33278 h -0.95498 v -6.33278 h -2.56591 v -0.84887 h 6.0868 z" />
      <path
         id="path940"
         style="shape-inside:url(#rect875)"
         d="m 452.06806,174.68563 h -2.836 v -0.73312 h 0.94051 v -5.71541 h -0.94051 v -0.73312 h 2.836 v 0.73312 h -0.94051 v 5.71541 h 0.94051 z" />
      <path
         id="path942"
         style="shape-inside:url(#rect875)"
         d="m 462.417,168.32873 q 0.43891,0.48232 0.67042,1.18167 0.23633,0.69936 0.23633,1.58681 0,0.88746 -0.24116,1.59164 -0.23633,0.69935 -0.66559,1.1672 -0.44373,0.48713 -1.05144,0.73311 -0.60289,0.24598 -1.37942,0.24598 -0.75723,0 -1.37942,-0.2508 -0.61736,-0.2508 -1.05144,-0.72829 -0.43408,-0.47749 -0.67042,-1.17202 -0.23151,-0.69454 -0.23151,-1.58682 0,-0.87781 0.23151,-1.57234 0.23152,-0.69935 0.67524,-1.19614 0.42444,-0.47266 1.05145,-0.72347 0.63183,-0.2508 1.37459,-0.2508 0.7717,0 1.38424,0.25563 0.61736,0.2508 1.04662,0.71864 z m -0.0868,2.76848 q 0,-1.39871 -0.627,-2.15594 -0.62701,-0.76205 -1.71222,-0.76205 -1.09485,0 -1.72186,0.76205 -0.62218,0.75723 -0.62218,2.15594 0,1.41318 0.63665,2.16559 0.63666,0.74759 1.70739,0.74759 1.07074,0 1.70257,-0.74759 0.63665,-0.75241 0.63665,-2.16559 z" />
      <path
         id="path944"
         style="shape-inside:url(#rect875)"
         d="m 473.6775,174.68563 h -1.18166 l -3.40514,-6.42442 v 6.42442 h -0.89228 v -7.18165 h 1.4807 l 3.1061,5.86493 v -5.86493 h 0.89228 z" />
    </g>
  </g>
</svg>
